# xmcd
#
# Track frame offsets: 
#        150
#        17491
#        33940
#        52462
#        68345
#        89535
#        106305
#        122639
#        127531
#        148719
#        170607
#        185885
#        206290
#
# Disc length: 2914 seconds
#
# Revision: 0
# Processed by: cddbd v1.5.2PL0 Copyright (c) Steve Scherf et al.
# Submitted via: ExactAudioCopy v0.95b3
#
DISCID=b00b600d
DTITLE=Bone Shakers - Book Of Spells
DYEAR=1900
DGENRE=
TTITLE0=Cold Sweat
TTITLE1=Break Down The Walls
TTITLE2=I Blew Up The United States
TTITLE3=Part Time Man
TTITLE4=Living All Of My Days For You
TTITLE5=Welcome To My Life
TTITLE6=Why Don't You Want Me?
TTITLE7=Queenie's Groove
TTITLE8=Let's Straighten It Out
TTITLE9=One You Run To
TTITLE10=Don't Tear My Heart Apart
TTITLE11=Long Way Down
TTITLE12=Fudge Brownie
EXTD=
EXTT0=
EXTT1=
EXTT2=
EXTT3=
EXTT4=
EXTT5=
EXTT6=
EXTT7=
EXTT8=
EXTT9=
EXTT10=
EXTT11=
EXTT12=
PLAYORDER=
